<svg width="1400" height="620" viewBox="0 0 1400 620" xmlns="http://www.w3.org/2000/svg">
  <defs>
    <filter id="glow" x="-40%" y="-40%" width="180%" height="180%">
      <feGaussianBlur stdDeviation="10" result="b"/>
      <feMerge><feMergeNode in="b"/><feMergeNode in="SourceGraphic"/></feMerge>
    </filter>
    <linearGradient id="gradBar" x1="0" x2="1" y1="0" y2="0">
      <stop offset="0" stop-color="rgba(88,166,255,0.25)"/>
      <stop offset="1" stop-color="rgba(137,87,229,0.18)"/>
    </linearGradient>
    <marker id="m" markerWidth="10" markerHeight="10" refX="8" refY="3" orient="auto">
      <path d="M0,0 L9,3 L0,6 Z" fill="rgba(255,255,255,0.35)"/>
    </marker>
    <style>
      .bg { fill:#0d1117; }
      .card { fill:#0b1220; stroke:rgba(255,255,255,0.10); stroke-width:1.2; }
      .h { fill:rgba(255,255,255,0.92); font:800 18px system-ui; }
      .t { fill:rgba(255,255,255,0.86); font:700 14px system-ui; }
      .s { fill:rgba(255,255,255,0.68); font:500 12px system-ui; }
      .mut { fill:rgba(255,255,255,0.55); font:500 11px system-ui; }
      .bar { fill:url(#gradBar); stroke:rgba(255,255,255,0.10); stroke-width:1.1; }
      .arrow { stroke:rgba(255,255,255,0.30); stroke-width:2.2; fill:none; marker-end:url(#m); stroke-dasharray:12 10; stroke-dashoffset:260; }
      .uc { fill:rgba(88,166,255,0.12); stroke:rgba(88,166,255,0.26); stroke-width:1; }
      .obs { fill:rgba(46,160,67,0.10); stroke:rgba(46,160,67,0.22); stroke-width:1; }
      .sec { fill:rgba(248,81,73,0.10); stroke:rgba(248,81,73,0.24); stroke-width:1; }
      .dot { fill:rgba(88,166,255,0.85); }
      .dot2 { fill:rgba(46,160,67,0.80); }
    </style>
  </defs>

  <rect class="bg" x="0" y="0" width="1400" height="620" rx="26"/>

  <text x="46" y="52" class="h">Enterprise-Scale Data Platform (Databricks Lakehouse)</text>
  <text x="46" y="78" class="s">Multi-source ingestion • streaming + batch • governed lakehouse • CI/CD deployments</text>

  <g filter="url(#glow)" opacity="0.12">
    <rect x="40" y="102" width="1320" height="52" rx="16" class="bar"/>
  </g>
  <rect x="40" y="102" width="1320" height="52" rx="16" class="bar" opacity="0.75"/>
  <text x="64" y="134" class="t">Orchestration &amp; CI/CD</text>
  <text x="260" y="134" class="s">Databricks Workflows • Asset Bundles • GitHub Actions • Environments (dev / stage / prod)</text>

  <!-- Sources -->
  <g opacity="0.95">
    <rect x="40" y="170" width="220" height="360" rx="18" class="card"/>
    <text x="62" y="210" class="t">Sources</text>
    <text x="62" y="236" class="s">Apps • DBs • SaaS • Files</text>
    <g>
          <rect x="62" y="262" width="26" height="26" rx="8" fill="#111c2f" stroke="rgba(255,255,255,0.12)" />
          <text x="75" y="280" text-anchor="middle" fill="#e6edf3" font-size="12" font-weight="800" font-family="system-ui">AWS</text>
        </g>
    <g>
          <rect x="96" y="262" width="26" height="26" rx="8" fill="#102b2a" stroke="rgba(255,255,255,0.12)" />
          <text x="109" y="280" text-anchor="middle" fill="#e6edf3" font-size="12" font-weight="800" font-family="system-ui">AZ</text>
        </g>
    <g>
          <rect x="130" y="262" width="26" height="26" rx="8" fill="#2b1b32" stroke="rgba(255,255,255,0.12)" />
          <text x="143" y="280" text-anchor="middle" fill="#e6edf3" font-size="12" font-weight="800" font-family="system-ui">API</text>
        </g>
    <text x="62" y="318" class="mut">CDC / events / extracts</text>
    <rect x="62" y="352" width="176" height="46" rx="14" class="sec"/>
    <text x="78" y="382" class="s">Security: IAM • secrets</text>
    <rect x="62" y="416" width="176" height="88" rx="14" class="obs"/>
    <text x="78" y="444" class="s">Data contracts</text>
    <text x="78" y="466" class="mut">schemas • SLOs</text>
  </g>

  <!-- Ingestion -->
  <g opacity="0.55">
    <rect x="280" y="170" width="220" height="360" rx="18" class="card"/>
    <text x="302" y="210" class="t">Ingestion</text>
    <text x="302" y="236" class="s">Streaming + Batch</text>
    <g>
          <rect x="302" y="262" width="26" height="26" rx="8" fill="#1f2937" stroke="rgba(255,255,255,0.12)" />
          <text x="315" y="280" text-anchor="middle" fill="#e6edf3" font-size="12" font-weight="800" font-family="system-ui">KF</text>
        </g>
    <text x="336" y="280" class="s">Kafka</text>
    <g>
          <rect x="302" y="300" width="26" height="26" rx="8" fill="#111c2f" stroke="rgba(255,255,255,0.12)" />
          <text x="315" y="318" text-anchor="middle" fill="#e6edf3" font-size="12" font-weight="800" font-family="system-ui">KN</text>
        </g>
    <text x="336" y="318" class="s">Kinesis</text>
    <g>
          <rect x="302" y="338" width="26" height="26" rx="8" fill="#3b1a17" stroke="rgba(255,255,255,0.12)" />
          <text x="315" y="356" text-anchor="middle" fill="#e6edf3" font-size="12" font-weight="800" font-family="system-ui">AL</text>
        </g>
    <text x="336" y="356" class="s">Auto Loader</text>
    <g>
          <rect x="302" y="376" width="26" height="26" rx="8" fill="#111c2f" stroke="rgba(255,255,255,0.12)" />
          <text x="315" y="394" text-anchor="middle" fill="#e6edf3" font-size="12" font-weight="800" font-family="system-ui">GL</text>
        </g>
    <text x="336" y="394" class="s">AWS Glue</text>
    <rect x="302" y="426" width="176" height="78" rx="14" class="uc"/>
    <text x="318" y="454" class="s">Bronze (raw Delta)</text>
    <text x="318" y="476" class="mut">schema evolution • checkpoints</text>
  </g>

  <!-- Processing -->
  <g opacity="0.55">
    <rect x="520" y="170" width="220" height="360" rx="18" class="card"/>
    <text x="542" y="210" class="t">Processing</text>
    <text x="542" y="236" class="s">Transform • Quality</text>
    <g>
          <rect x="542" y="262" width="26" height="26" rx="8" fill="#2b1b32" stroke="rgba(255,255,255,0.12)" />
          <text x="555" y="280" text-anchor="middle" fill="#e6edf3" font-size="12" font-weight="800" font-family="system-ui">SP</text>
        </g>
    <text x="576" y="280" class="s">Spark</text>
    <g>
          <rect x="542" y="300" width="26" height="26" rx="8" fill="#3b1a17" stroke="rgba(255,255,255,0.12)" />
          <text x="555" y="318" text-anchor="middle" fill="#e6edf3" font-size="12" font-weight="800" font-family="system-ui">DLT</text>
        </g>
    <text x="590" y="318" class="s">Delta Live Tables</text>
    <rect x="542" y="346" width="176" height="64" rx="14" class="obs"/>
    <text x="558" y="374" class="s">Quality gates</text>
    <text x="558" y="396" class="mut">expectations • quarantine</text>
    <rect x="542" y="426" width="176" height="78" rx="14" class="uc"/>
    <text x="558" y="454" class="s">Silver (conformed)</text>
    <text x="558" y="476" class="mut">incremental • backfills</text>
  </g>

  <!-- Lakehouse -->
  <g opacity="0.55">
    <rect x="760" y="170" width="260" height="360" rx="18" class="card"/>
    <text x="782" y="210" class="t">Lakehouse</text>
    <text x="782" y="236" class="s">Delta tables • performance</text>
    <rect x="782" y="262" width="216" height="70" rx="14" class="uc"/>
    <text x="798" y="290" class="s">Gold (serving)</text>
    <text x="798" y="312" class="mut">optimized layouts</text>
    <rect x="782" y="346" width="216" height="70" rx="14" class="obs"/>
    <text x="798" y="374" class="s">Observability</text>
    <text x="798" y="396" class="mut">metrics • logs • alerts</text>
    <rect x="782" y="430" width="216" height="74" rx="14" class="sec"/>
    <text x="798" y="458" class="s">Resilience</text>
    <text x="798" y="480" class="mut">retries • idempotency</text>
  </g>

  <!-- Governance -->
  <g opacity="0.55">
    <rect x="1040" y="170" width="160" height="360" rx="18" class="card"/>
    <text x="1058" y="210" class="t">Governance</text>
    <g>
          <rect x="1058" y="240" width="26" height="26" rx="8" fill="#111c2f" stroke="rgba(255,255,255,0.12)" />
          <text x="1071" y="258" text-anchor="middle" fill="#e6edf3" font-size="12" font-weight="800" font-family="system-ui">UC</text>
        </g>
    <text x="1094" y="258" class="s">Unity Catalog</text>
    <rect x="1058" y="284" width="124" height="68" rx="14" class="uc"/>
    <text x="1074" y="312" class="s">ACLs</text>
    <text x="1074" y="334" class="mut">catalog/schema/table</text>
    <rect x="1058" y="366" width="124" height="68" rx="14" class="uc" opacity="0.85"/>
    <text x="1074" y="394" class="s">Lineage</text>
    <text x="1074" y="416" class="mut">auditability</text>
    <rect x="1058" y="448" width="124" height="68" rx="14" class="uc" opacity="0.75"/>
    <text x="1074" y="476" class="s">Sharing</text>
    <text x="1074" y="498" class="mut">Delta Sharing</text>
  </g>

  <!-- Serving -->
  <g opacity="0.55">
    <rect x="1220" y="170" width="140" height="360" rx="18" class="card"/>
    <text x="1236" y="210" class="t">Serve</text>
    <text x="1236" y="236" class="s">Consumers</text>
    <rect x="1236" y="262" width="108" height="66" rx="14" class="uc"/>
    <text x="1252" y="290" class="s">DBSQL</text>
    <text x="1252" y="312" class="mut">dashboards</text>
    <rect x="1236" y="342" width="108" height="66" rx="14" class="uc" opacity="0.85"/>
    <text x="1252" y="370" class="s">APIs</text>
    <text x="1252" y="392" class="mut">apps</text>
    <rect x="1236" y="422" width="108" height="82" rx="14" class="uc" opacity="0.75"/>
    <text x="1252" y="452" class="s">ML</text>
    <text x="1252" y="474" class="mut">features</text>
  </g>

  <!-- Main flow arrows -->
  <path d="M260 290 C260 290, 260 290, 280 290" class="arrow"/>
  <path d="M500 290 C500 290, 500 290, 520 290" class="arrow"/>
  <path d="M740 290 C740 290, 740 290, 760 290" class="arrow"/>
  <path d="M1020 290 C1020 290, 1020 290, 1040 290" class="arrow"/>
  <path d="M1200 290 C1204 290, 1204 290, 1220 290" class="arrow"/>

  <circle cx="160" cy="290" r="5" class="dot"/>
  <circle cx="160" cy="316" r="4" class="dot2" opacity="0.75"/>

  <g filter="url(#glow)" opacity="0.1">
    <rect x="40" y="552" width="1320" height="36" rx="14" class="uc"/>
  </g>
  <rect x="40" y="552" width="1320" height="36" rx="14" class="uc" opacity="0.92"/>
  <text x="64" y="575" class="s">Enterprise features: environments • CI/CD via bundles • governance by default • observability built-in</text>
</svg>